<svg version="1.1" xmlns="http://www.w3.org/2000/svg" xmlns:xlink="http://www.w3.org/1999/xlink" x="0px" y="0px"
     viewBox="0 0 600 200" style="enable-background:new 0 0 600 200;" xml:space="preserve">
<g>
	<path style="fill:#FFFFFF;" d="M271,128.7c0,8.9-2.2,15.8-6.6,20.6s-10.8,7.2-19.3,7.2c-8.4,0-14.8-2.4-19.3-7.2
		s-6.6-11.6-6.6-20.6V71.3c0-8.9,2.2-15.8,6.6-20.6c4.4-4.8,10.8-7.2,19.3-7.3c8.4,0,14.8,2.4,19.3,7.2s6.6,11.6,6.6,20.6v6.5
		c0,2.4-1.9,4.3-4.3,4.3h-7.9c-2.3,0-4.3-1.9-4.3-4.3v-7.6c0-7.3-3-10.9-9-10.9c-6,0-9,3.6-9,10.9v59.7c0,7.2,3,10.7,9,10.7
		s9-3.6,9-10.7v-11.5c0-2.3,1.9-4.3,4.3-4.3h7.9c2.4,0,4.3,1.9,4.3,4.3L271,128.7z M287.7,50.7c4.5-4.8,11.1-7.3,19.6-7.3
		c8.5,0,15.1,2.4,19.6,7.3c4.5,4.8,6.8,11.7,6.8,20.6v57.5c0,8.8-2.3,15.7-6.8,20.6c-4.5,4.9-11.1,7.3-19.6,7.2
		c-8.5,0-15.1-2.4-19.6-7.3c-4.5-4.8-6.8-11.7-6.8-20.6V71.2C281,62.4,283.2,55.6,287.7,50.7z M307.3,140.7c6,0,9-3.6,9-10.9V70.2
		c0-7.3-3-10.9-9-10.9c-6,0-9,3.6-9,10.9v59.7C298.3,137.1,301.3,140.7,307.3,140.7L307.3,140.7z M373.2,44.7c8.6,0,15.1,2.3,19.4,7
		c4.3,4.6,6.5,11.4,6.5,20.4V128c0,9-2.2,15.7-6.5,20.4c-4.3,4.6-10.8,6.9-19.4,6.9h-24.7c-1.5,0-2.8-1.3-2.8-2.8V47.5
		c0-1.5,1.3-2.8,2.8-2.8L373.2,44.7z M363.1,139.5h9.8c2.8,0,5-0.8,6.5-2.5c1.5-1.7,2.3-4.4,2.3-8.2V71.3c0-3.8-0.8-6.5-2.3-8.2
		c-1.7-1.8-4.1-2.7-6.5-2.5h-9.8V139.5z M449.3,152.9l-2.6-17.7h-21.3l-2.6,17.7c-0.2,1.4-1.4,2.4-2.8,2.4h-10.2
		c-1.5,0-2.8-1.2-2.8-2.8c0-0.2,0-0.3,0-0.5l16.8-104.9c0.2-1.4,1.4-2.4,2.8-2.4H447c1.4,0,2.6,1,2.8,2.4L466.7,152
		c0.3,1.5-0.8,3-2.3,3.2c-0.2,0-0.3,0-0.5,0H452C450.6,155.3,449.5,154.3,449.3,152.9L449.3,152.9z M444.2,120.2l-8.4-55.9
		l-8.4,55.9H444.2z M488.6,155.3h-10c-1.5,0-2.8-1.3-2.8-2.8V47.5c0-1.5,1.3-2.8,2.8-2.8h16.8c1.3,0,2.4,0.9,2.7,2.1l17.3,64.1V47.5
		c0-1.5,1.3-2.8,2.8-2.8h9.8c1.5,0,2.8,1.3,2.8,2.8v104.9c0,1.5-1.3,2.8-2.8,2.8h-12.9c-1.3,0-2.4-0.9-2.7-2.1l-21.1-78v77.2
		C491.5,154,490.2,155.3,488.6,155.3C488.7,155.3,488.6,155.3,488.6,155.3L488.6,155.3z M582.6,152.9l-2.6-17.7h-21.3l-2.6,17.7
		c-0.2,1.4-1.4,2.4-2.8,2.4h-10.2c-1.5,0-2.8-1.2-2.8-2.8c0-0.2,0-0.3,0-0.5L557,47.1c0.2-1.4,1.4-2.4,2.8-2.4h20.6
		c1.4,0,2.6,1,2.8,2.4L600,152c0.3,1.5-0.8,3-2.3,3.2c-0.2,0-0.3,0-0.5,0h-11.8C583.9,155.3,582.8,154.2,582.6,152.9z M577.6,120.2
		l-8.4-55.9l-8.4,55.9H577.6z"/>
  <path style="fill:#8400FF;" d="M96,4C43,4,0,47,0,100s43,96,96,96s96-43,96-96l0,0C192.1,47,149.1,4,96,4z M78.4,154.7
		c-8.4,0-14.9-2.4-19.3-7.2c-4.1-4.4-6.3-10.6-6.5-18.6l-0.2-14.2c-0.2-3.7-0.9-6.2-2-7.5c-0.9-1-2.5-1.7-4.7-1.9
		c-1.1-0.1-2-1.1-2-2.2v-10c0-1.1,0.8-2.1,2-2.2c2.2-0.2,3.8-0.8,4.7-1.9c1.1-1.3,1.9-3.8,2-7.5l0.1-8.9v-3.3c0-9,2.2-15.8,6.6-20.6
		c4.4-4.8,10.8-7.2,19.3-7.2c8.4,0,14.8,2.4,19.3,7.2c4.4,4.8,6.6,11.7,6.6,20.6V78c0,1.2-1,2.1-2.1,2.1c0,0,0,0,0,0H89.9
		c-1.2,0-2.1-0.9-2.2-2.1c0,0,0,0,0,0v-8.6c0-0.9,0-1.7,0.1-2.6c-0.4-6.3-3.4-9.4-9-9.4c-4.6,0-7.4,2.1-8.5,6.4
		c-0.2,1.6-0.2,3.6-0.4,6.1l-0.1,2.3v0.5l0,0l-0.6,11.4c-0.2,3.5-1.9,6.5-3.4,8.9c-1.5,2.5-4.1,4.2-7.7,5.1c3.7,1,6.3,2.7,7.7,5.1
		c1.5,2.7,2.4,5.8,2.5,8.9l1.3,14.7c0,0.7,0.1,1.3,0.2,2h0.1c0,0.9,0.1,1.9,0.3,2.8c0.2,0.8,0.4,1.7,0.8,2.5
		c0.2,0.5,0.5,0.9,0.8,1.3l0.1,0.1c1.5,2.1,3.8,3.1,7.1,3.1c0.3,0,0.6,0,0.8,0c1.2,5.5,3.8,10.7,7.6,14.9
		C84.4,154.4,81.4,154.8,78.4,154.7z M139.5,126.9c0,8.9-2.2,15.8-6.6,20.6s-10.8,7.2-19.3,7.2c-8.4,0-14.8-2.4-19.3-7.2
		c-4.4-4.8-6.6-11.7-6.6-20.6v-12.5c0-1.2,1-2.2,2.2-2.2l0,0h12.3c1.2,0,2.2,1,2.2,2.2l0,0v12.5c0,0.9,0,1.7-0.1,2.6
		c0.4,6.2,3.4,9.3,9,9.3c6,0,9-3.6,9-10.7V68.3c0-7.3-3-10.9-9-10.9c-0.3,0-0.6,0-0.9,0c-1.2-5.5-3.8-10.5-7.6-14.7
		c2.9-0.8,5.9-1.1,8.9-1.1c8.4,0,14.8,2.4,19.3,7.2c4.4,4.8,6.6,11.7,6.6,20.6L139.5,126.9z"/>
</g>
</svg>
